<svg width="153" height="37" viewBox="0 0 153 37" fill="none" xmlns="http://www.w3.org/2000/svg">
<path d="M23.0078 14.3798V15.6601C23.0078 17.7135 22.7295 19.5566 22.1729 21.1894C21.6162 22.8222 20.8307 24.2138 19.8164 25.3642C18.8021 26.5022 17.5899 27.3743 16.1797 27.9804C14.7819 28.5865 13.2295 28.8896 11.5225 28.8896C9.8278 28.8896 8.2754 28.5865 6.8653 27.9804C5.4675 27.3743 4.2552 26.5022 3.2285 25.3642C2.2018 24.2138 1.404 22.8222 0.834999 21.1894C0.278299 19.5566 0 17.7135 0 15.6601V14.3798C0 12.3141 0.278299 10.471 0.834999 8.8505C1.3916 7.2177 2.1771 5.8261 3.1914 4.6757C4.2181 3.5253 5.4304 2.6471 6.8281 2.041C8.2383 1.4349 9.7907 1.1318 11.4854 1.1318C13.1924 1.1318 14.7448 1.4349 16.1426 2.041C17.5528 2.6471 18.765 3.5253 19.7793 4.6757C20.806 5.8261 21.5977 7.2177 22.1543 8.8505C22.7233 10.471 23.0078 12.3141 23.0078 14.3798ZM17.3858 15.6601V14.3427C17.3858 12.9078 17.2559 11.6461 16.9961 10.5576C16.7363 9.469 16.3529 8.5537 15.8457 7.8115C15.3386 7.0693 14.7201 6.5127 13.9903 6.1416C13.2604 5.7581 12.4255 5.5664 11.4854 5.5664C10.5453 5.5664 9.7103 5.7581 8.9805 6.1416C8.263 6.5127 7.6507 7.0693 7.1436 7.8115C6.6488 8.5537 6.2715 9.469 6.0117 10.5576C5.752 11.6461 5.6221 12.9078 5.6221 14.3427V15.6601C5.6221 17.0826 5.752 18.3444 6.0117 19.4453C6.2715 20.5338 6.655 21.4554 7.1621 22.2099C7.6693 22.9521 8.2878 23.5149 9.0176 23.8984C9.7474 24.2819 10.5824 24.4736 11.5225 24.4736C12.4626 24.4736 13.2975 24.2819 14.0274 23.8984C14.7572 23.5149 15.3695 22.9521 15.8643 22.2099C16.3591 21.4554 16.7363 20.5338 16.9961 19.4453C17.2559 18.3444 17.3858 17.0826 17.3858 15.6601ZM32.0254 12.8212V28.5185H26.6817V8.4423H31.71L32.0254 12.8212ZM38.0742 8.3125L37.9815 13.2666C37.7217 13.2294 37.4063 13.1985 37.0352 13.1738C36.6765 13.1367 36.3487 13.1181 36.0518 13.1181C35.2972 13.1181 34.6416 13.2171 34.085 13.415C33.5407 13.6005 33.083 13.8789 32.7119 14.25C32.3532 14.621 32.0811 15.0725 31.8955 15.6044C31.7223 16.1363 31.6234 16.7425 31.5987 17.4228L30.5225 17.0888C30.5225 15.79 30.6524 14.5963 30.9121 13.5078C31.1719 12.4069 31.5492 11.4482 32.044 10.6318C32.5511 9.8154 33.1696 9.1845 33.8994 8.7392C34.6293 8.2939 35.4642 8.0712 36.4043 8.0712C36.7012 8.0712 37.0043 8.096 37.3135 8.1455C37.6227 8.1826 37.8763 8.2382 38.0742 8.3125ZM52.9363 8.4423H57.7793V27.8505C57.7793 29.6813 57.3713 31.2337 56.5543 32.5078C55.7503 33.7942 54.6253 34.7653 53.1773 35.4209C51.7305 36.0888 50.0482 36.4228 48.1309 36.4228C47.2897 36.4228 46.3991 36.3115 45.459 36.0888C44.5313 35.8662 43.6406 35.5198 42.7871 35.0498C41.946 34.5797 41.2409 33.986 40.6719 33.2685L43.0283 30.1142C43.6468 30.8317 44.3643 31.3883 45.1807 31.7841C45.9971 32.1923 46.9001 32.3964 47.8897 32.3964C48.8545 32.3964 49.6709 32.2171 50.3389 31.8584C51.0069 31.512 51.5202 30.9987 51.8789 30.3183C52.2376 29.6503 52.417 28.8401 52.417 27.8877V13.081L52.9363 8.4423ZM39.4287 18.7216V18.332C39.4287 16.7981 39.6143 15.4065 39.9854 14.1572C40.3688 12.8955 40.9069 11.8131 41.5996 10.9101C42.3047 10.0071 43.1582 9.3082 44.1602 8.8134C45.1621 8.3186 46.294 8.0712 47.5557 8.0712C48.8916 8.0712 50.0111 8.3186 50.9141 8.8134C51.8171 9.3082 52.5593 10.0133 53.1403 10.9287C53.7223 11.8317 54.1733 12.9016 54.4953 14.1386C54.8293 15.3632 55.0893 16.7054 55.2743 18.165V19.0185C55.0893 20.4163 54.8103 21.7151 54.4393 22.915C54.0683 24.1149 53.5793 25.1663 52.9733 26.0693C52.3675 26.9599 51.613 27.6526 50.71 28.1474C49.8194 28.6422 48.7556 28.8896 47.5186 28.8896C46.2816 28.8896 45.1621 28.636 44.1602 28.1289C43.1706 27.6217 42.3233 26.9104 41.6182 25.9951C40.9131 25.0797 40.3688 24.0035 39.9854 22.7666C39.6143 21.5296 39.4287 20.1813 39.4287 18.7216ZM44.7725 18.332V18.7216C44.7725 19.5504 44.8529 20.3235 45.0137 21.041C45.1745 21.7584 45.4219 22.3955 45.7559 22.9521C46.1022 23.4964 46.529 23.9231 47.0362 24.2324C47.5557 24.5293 48.168 24.6777 48.8731 24.6777C49.8503 24.6777 50.6481 24.4736 51.2666 24.0654C51.8851 23.6448 52.349 23.0696 52.6583 22.3398C52.9673 21.61 53.1473 20.7688 53.1963 19.8164V17.3857C53.1713 16.6064 53.0663 15.9075 52.8813 15.289C52.6953 14.6582 52.4356 14.1201 52.1016 13.6748C51.7676 13.2294 51.3347 12.8831 50.8028 12.6357C50.2709 12.3883 49.64 12.2646 48.9102 12.2646C48.2051 12.2646 47.5928 12.4254 47.0733 12.747C46.5661 13.0563 46.1393 13.483 45.793 14.0273C45.459 14.5716 45.2054 15.2148 45.0322 15.957C44.8591 16.6868 44.7725 17.4785 44.7725 18.332ZM72.7713 23.9912V15.0478C72.7713 14.4046 72.6663 13.8541 72.4563 13.3964C72.2453 12.9264 71.9183 12.5615 71.4723 12.3017C71.0393 12.0419 70.4773 11.9121 69.7843 11.9121C69.1903 11.9121 68.6773 12.0172 68.2443 12.2275C67.8113 12.4254 67.4773 12.7161 67.2423 13.0996C67.0073 13.4707 66.8893 13.9098 66.8893 14.4169H61.5463C61.5463 13.5634 61.7443 12.7532 62.1393 11.9863C62.5353 11.2194 63.1103 10.5452 63.8653 9.9638C64.6203 9.3701 65.5163 8.9062 66.5553 8.5722C67.6073 8.2382 68.7823 8.0712 70.0813 8.0712C71.6393 8.0712 73.0253 8.331 74.2373 8.8505C75.4493 9.3701 76.4023 10.1494 77.0943 11.1884C77.8003 12.2275 78.1523 13.5263 78.1523 15.0849V23.6757C78.1523 24.7766 78.2203 25.6796 78.3563 26.3847C78.4923 27.0774 78.6903 27.6835 78.9503 28.2031V28.5185H73.5513C73.2913 27.9742 73.0933 27.2939 72.9573 26.4775C72.8333 25.6487 72.7713 24.8199 72.7713 23.9912ZM73.4763 16.291L73.5133 19.3154H70.5263C69.8213 19.3154 69.2093 19.3958 68.6893 19.5566C68.1703 19.7174 67.7433 19.9462 67.4093 20.2431C67.0753 20.5276 66.8283 20.8616 66.6673 21.2451C66.5183 21.6285 66.4443 22.0491 66.4443 22.5068C66.4443 22.9645 66.5493 23.3789 66.7593 23.75C66.9703 24.1087 67.2733 24.3932 67.6693 24.6035C68.0643 24.8014 68.5283 24.9003 69.0603 24.9003C69.8643 24.9003 70.5633 24.7395 71.1573 24.4179C71.7513 24.0963 72.2083 23.7005 72.5303 23.2304C72.8643 22.7604 73.0373 22.3151 73.0503 21.8945L74.4603 24.1582C74.2623 24.6653 73.9903 25.191 73.6433 25.7353C73.3093 26.2796 72.8833 26.7929 72.3633 27.2753C71.8433 27.7454 71.2193 28.135 70.4893 28.4443C69.7593 28.7412 68.8933 28.8896 67.8913 28.8896C66.6173 28.8896 65.4613 28.636 64.4223 28.1289C63.3953 27.6093 62.5783 26.8981 61.9723 25.9951C61.3793 25.0797 61.0823 24.0406 61.0823 22.8779C61.0823 21.8265 61.2803 20.8925 61.6753 20.0761C62.0713 19.2597 62.6533 18.5732 63.4203 18.0166C64.1993 17.4475 65.1703 17.0208 66.3333 16.7363C67.4953 16.4394 68.8443 16.291 70.3783 16.291H73.4763ZM87.5043 12.7285V28.5185H82.1603V8.4423H87.1703L87.5043 12.7285ZM86.7243 17.7753H85.2773C85.2773 16.291 85.4693 14.955 85.8523 13.7675C86.2363 12.5677 86.7743 11.5472 87.4673 10.706C88.1593 9.8525 88.9823 9.2031 89.9343 8.7578C90.8993 8.3001 91.9753 8.0712 93.1633 8.0712C94.1033 8.0712 94.9633 8.2073 95.7423 8.4794C96.5213 8.7516 97.1893 9.1845 97.7463 9.7783C98.3153 10.372 98.7483 11.1575 99.0453 12.1347C99.3543 13.1119 99.5093 14.3056 99.5093 15.7158V28.5185H94.1283V15.6972C94.1283 14.8066 94.0043 14.1139 93.7573 13.6191C93.5093 13.1243 93.1443 12.778 92.6623 12.58C92.1923 12.3697 91.6103 12.2646 90.9183 12.2646C90.2003 12.2646 89.5763 12.4069 89.0443 12.6914C88.5243 12.9759 88.0913 13.3717 87.7453 13.8789C87.4113 14.3737 87.1573 14.955 86.9843 15.623C86.8113 16.291 86.7243 17.0084 86.7243 17.7753ZM109.213 8.4423V28.5185H103.85V8.4423H109.213ZM103.516 3.2099C103.516 2.4306 103.788 1.7874 104.333 1.2802C104.877 0.7731 105.607 0.5195 106.522 0.5195C107.425 0.5195 108.149 0.7731 108.693 1.2802C109.25 1.7874 109.528 2.4306 109.528 3.2099C109.528 3.9892 109.25 4.6324 108.693 5.1396C108.149 5.6468 107.425 5.9003 106.522 5.9003C105.607 5.9003 104.877 5.6468 104.333 5.1396C103.788 4.6324 103.516 3.9892 103.516 3.2099ZM121.923 24.7148C122.578 24.7148 123.16 24.5911 123.667 24.3437C124.174 24.0839 124.57 23.7252 124.854 23.2675C125.151 22.7975 125.306 22.247 125.318 21.6162H130.346C130.334 23.0263 129.957 24.2819 129.215 25.3828C128.472 26.4713 127.477 27.331 126.227 27.9619C124.978 28.5804 123.58 28.8896 122.034 28.8896C120.475 28.8896 119.115 28.6298 117.952 28.1103C116.801 27.5908 115.843 26.8733 115.076 25.958C114.309 25.0302 113.734 23.9541 113.35 22.7294C112.967 21.4925 112.775 20.1689 112.775 18.7587V18.2207C112.775 16.7981 112.967 15.4746 113.35 14.25C113.734 13.013 114.309 11.9368 115.076 11.0214C115.843 10.0937 116.801 9.3701 117.952 8.8505C119.102 8.331 120.451 8.0712 121.997 8.0712C123.642 8.0712 125.083 8.3867 126.32 9.0175C127.569 9.6484 128.547 10.5514 129.252 11.7265C129.969 12.8893 130.334 14.2685 130.346 15.8642H125.318C125.306 15.1962 125.163 14.5901 124.891 14.0459C124.632 13.5016 124.248 13.0686 123.741 12.747C123.246 12.413 122.634 12.246 121.904 12.246C121.125 12.246 120.488 12.413 119.993 12.747C119.498 13.0686 119.115 13.514 118.842 14.083C118.57 14.6396 118.379 15.2766 118.267 15.9941C118.168 16.6992 118.119 17.4414 118.119 18.2207V18.7587C118.119 19.538 118.168 20.2864 118.267 21.0039C118.366 21.7213 118.552 22.3584 118.824 22.915C119.108 23.4716 119.498 23.9108 119.993 24.2324C120.488 24.554 121.131 24.7148 121.923 24.7148ZM138.789 0V28.5185H133.445V0H138.789ZM151.443 8.4423L142.722 18.3877L138.047 23.1191L136.098 19.2597L139.809 14.5468L145.023 8.4423H151.443ZM145.895 28.5185L139.958 19.2412L143.65 16.0127L152.055 28.5185H145.895Z" fill="#274C5B"/>
</svg>
